<?xml version="1.0" standalone="no"?><svg xmlns="http://www.w3.org/2000/svg" viewBox="0 0 1440 320"><path fill="#fff" fill-opacity="1" d="M0,224L30,234.7C60,245,120,267,180,282.7C240,299,300,309,360,277.3C420,245,480,171,540,122.7C600,75,660,53,720,53.3C780,53,840,75,900,106.7C960,139,1020,181,1080,202.7C1140,224,1200,224,1260,208C1320,192,1380,160,1410,144L1440,128L1440,320L1410,320C1380,320,1320,320,1260,320C1200,320,1140,320,1080,320C1020,320,960,320,900,320C840,320,780,320,720,320C660,320,600,320,540,320C480,320,420,320,360,320C300,320,240,320,180,320C120,320,60,320,30,320L0,320Z"></path></svg>